<?xml version="1.0" encoding="UTF-8" standalone="no"?><!-- Generator: Gravit.io --><svg xmlns="http://www.w3.org/2000/svg" xmlns:xlink="http://www.w3.org/1999/xlink" style="isolation:isolate" viewBox="161.838 285.095 271.6 271.7" width="271.6pt" height="271.7pt"><g><g><path d=" M 297.638 556.795 C 222.738 556.795 161.838 495.795 161.838 420.895 C 161.838 345.995 222.738 285.095 297.638 285.095 C 372.538 285.095 433.438 345.995 433.438 420.895 C 433.438 495.795 372.538 556.795 297.638 556.795 L 297.638 556.795 Z  M 297.638 289.095 C 224.938 289.095 165.838 348.195 165.838 420.895 C 165.838 493.595 224.938 552.695 297.638 552.695 C 370.338 552.695 429.438 493.595 429.438 420.895 C 429.438 348.195 370.338 289.095 297.638 289.095 Z " fill="rgb(31,182,253)"/></g><g><path d=" M 208.918 436.854 C 205.232 436.854 202.087 436.549 199.472 435.94 C 196.868 435.32 194.725 434.367 193.064 433.079 C 191.393 431.782 190.174 430.14 189.407 428.135 C 188.64 426.14 188.257 423.741 188.257 420.95 C 188.257 418.148 188.64 415.75 189.407 413.755 C 190.174 411.759 191.393 410.108 193.064 408.82 C 194.725 407.523 196.868 406.569 199.472 405.96 C 202.087 405.351 205.232 405.046 208.918 405.046 C 211.366 405.046 213.853 405.292 216.408 405.793 C 218.954 406.284 221.411 407.031 223.8 408.024 C 224.105 408.132 224.301 408.182 224.39 408.182 C 224.675 408.182 224.911 408.083 225.097 407.896 C 225.284 407.71 225.382 407.493 225.382 407.248 C 225.382 407.041 225.304 406.825 225.166 406.609 C 225.019 406.393 224.783 406.216 224.449 406.068 C 221.844 404.987 219.269 404.21 216.742 403.719 C 214.216 403.237 211.612 402.992 208.918 402.992 C 205.065 402.992 201.684 403.326 198.774 403.984 C 195.865 404.653 193.437 405.705 191.491 407.14 C 189.545 408.575 188.08 410.432 187.097 412.703 C 186.114 414.964 185.623 417.716 185.623 420.95 C 185.623 424.174 186.114 426.926 187.097 429.197 C 188.08 431.457 189.545 433.315 191.491 434.75 C 193.437 436.195 195.865 437.247 198.774 437.905 C 201.684 438.574 205.065 438.898 208.918 438.898 C 211.779 438.898 214.639 438.692 217.519 438.269 C 220.399 437.837 223.367 437.325 226.434 436.726 C 226.975 436.628 227.486 436.401 227.958 436.057 C 228.439 435.713 228.675 435.222 228.675 434.583 L 228.675 421.599 C 228.675 420.812 228.518 420.252 228.203 419.918 C 227.899 419.593 227.309 419.426 226.434 419.426 L 210.599 419.426 C 210.324 419.426 210.058 419.426 209.803 419.436 C 209.547 419.456 209.311 419.495 209.105 419.564 C 208.899 419.633 208.722 419.751 208.594 419.888 C 208.456 420.036 208.388 420.242 208.388 420.507 C 208.388 420.783 208.456 420.989 208.594 421.137 C 208.722 421.274 208.899 421.382 209.115 421.461 C 209.341 421.53 209.577 421.569 209.832 421.589 C 210.088 421.599 210.344 421.599 210.599 421.599 L 226.434 421.599 L 226.434 434.583 C 223.554 435.271 220.704 435.812 217.863 436.234 C 215.022 436.647 212.044 436.854 208.918 436.854 Z  M 249.798 421.628 L 235.605 404.417 C 235.163 403.906 234.72 403.64 234.268 403.64 C 233.973 403.64 233.728 403.739 233.531 403.935 C 233.334 404.132 233.236 404.387 233.236 404.702 C 233.236 404.967 233.275 405.184 233.344 405.351 C 233.423 405.518 233.56 405.714 233.767 405.94 L 248.491 423.555 L 248.491 436.166 C 248.491 436.441 248.511 436.696 248.54 436.942 C 248.57 437.198 248.639 437.414 248.737 437.611 C 248.845 437.807 248.983 437.964 249.16 438.082 C 249.336 438.19 249.582 438.249 249.887 438.249 C 250.408 438.249 250.742 438.043 250.899 437.63 C 251.057 437.217 251.135 436.706 251.135 436.107 L 251.135 423.623 L 265.791 405.94 C 266.145 405.528 266.322 405.144 266.322 404.79 C 266.322 404.053 265.978 403.68 265.299 403.68 C 264.818 403.68 264.385 403.925 263.992 404.417 L 249.798 421.628 Z  M 295.338 433.934 L 276.072 404.977 C 275.748 404.505 275.424 404.161 275.099 403.955 C 274.775 403.748 274.47 403.64 274.185 403.64 C 273.792 403.64 273.458 403.807 273.202 404.122 C 272.947 404.446 272.819 404.849 272.819 405.321 L 272.819 436.077 C 272.819 436.677 272.888 437.188 273.035 437.611 C 273.173 438.033 273.546 438.249 274.146 438.249 C 274.667 438.249 275.011 438.033 275.188 437.611 C 275.365 437.188 275.453 436.677 275.453 436.077 L 275.453 408.486 L 293.814 435.576 C 294.266 436.284 294.777 436.637 295.338 436.637 C 295.849 436.637 296.36 436.284 296.861 435.576 L 315.213 408.486 L 315.213 436.077 C 315.213 436.677 315.301 437.188 315.478 437.611 C 315.655 438.033 315.999 438.249 316.52 438.249 C 317.12 438.249 317.493 438.033 317.64 437.611 C 317.788 437.188 317.857 436.677 317.857 436.077 L 317.857 405.321 C 317.857 404.849 317.729 404.446 317.464 404.122 C 317.208 403.807 316.884 403.64 316.49 403.64 C 316.176 403.64 315.861 403.748 315.547 403.955 C 315.222 404.161 314.908 404.505 314.593 404.977 L 295.338 433.934 Z  M 356.407 405.233 L 339.294 436.136 C 339.186 436.343 339.098 436.529 339.029 436.696 C 338.95 436.863 338.921 437.031 338.921 437.198 C 338.921 437.611 339 437.935 339.167 438.19 C 339.334 438.436 339.589 438.564 339.943 438.564 C 340.228 438.564 340.523 438.466 340.828 438.269 C 341.133 438.072 341.388 437.748 341.624 437.316 L 346.961 427.624 L 369.077 427.624 L 374.366 437.198 C 374.651 437.709 374.936 438.072 375.211 438.269 C 375.496 438.466 375.781 438.564 376.066 438.564 C 376.361 438.564 376.607 438.456 376.813 438.249 C 377.019 438.043 377.128 437.748 377.128 437.384 C 377.128 436.981 377.01 436.578 376.784 436.166 L 359.641 405.233 C 359.287 404.604 359.002 404.191 358.786 403.975 C 358.57 403.758 358.314 403.64 358.019 403.64 C 357.646 403.64 357.371 403.758 357.184 403.984 C 356.997 404.21 356.742 404.633 356.407 405.233 Z  M 368.183 425.796 L 347.866 425.796 L 358.019 407.248 L 368.183 425.796 Z  M 393.68 405.695 L 393.68 436.195 L 382.593 436.195 L 381.787 436.195 C 381.511 436.195 381.276 436.234 381.059 436.293 C 380.833 436.352 380.666 436.451 380.529 436.588 C 380.391 436.726 380.322 436.913 380.322 437.158 C 380.322 437.473 380.401 437.699 380.538 437.846 C 380.686 437.994 380.873 438.092 381.089 438.161 C 381.305 438.22 381.551 438.249 381.816 438.249 L 382.593 438.249 L 407.412 438.249 L 408.287 438.249 C 408.552 438.249 408.788 438.22 408.984 438.161 C 409.181 438.092 409.338 437.994 409.466 437.856 C 409.584 437.728 409.653 437.512 409.653 437.227 C 409.653 436.952 409.584 436.746 409.466 436.608 C 409.338 436.46 409.181 436.352 408.984 436.293 C 408.788 436.234 408.552 436.195 408.287 436.195 L 407.412 436.195 L 396.324 436.195 L 396.324 405.695 L 407.412 405.695 L 408.287 405.695 C 408.552 405.695 408.788 405.665 408.984 405.606 C 409.181 405.537 409.338 405.439 409.466 405.311 C 409.584 405.174 409.653 404.957 409.653 404.672 C 409.653 404.397 409.584 404.191 409.466 404.053 C 409.338 403.906 409.181 403.798 408.984 403.739 C 408.788 403.68 408.552 403.64 408.287 403.64 L 407.412 403.64 L 382.593 403.64 L 381.816 403.64 C 381.551 403.64 381.305 403.68 381.089 403.739 C 380.873 403.798 380.686 403.906 380.538 404.053 C 380.401 404.191 380.322 404.417 380.322 404.731 C 380.322 404.977 380.391 405.174 380.529 405.311 C 380.666 405.439 380.833 405.537 381.059 405.606 C 381.276 405.665 381.511 405.695 381.787 405.695 L 382.593 405.695 L 393.68 405.695 Z " fill="rgb(31,182,253)"/></g></g></svg>